<svg xmlns="http://www.w3.org/2000/svg" xmlns:xlink="http://www.w3.org/1999/xlink" width="40" height="20" x="0" y="0" viewBox="0 0 40 20"><style>.t:not(:target){display:none}use{stroke-width:0;stroke:none;fill:#fff}</style><defs display="none"><g id="Privacy-shape"><path d="M 0,3.8 c 1.8,0.4 4.5,-1.7 7.5,-0.3 c 0.5,0.9 0.5,0.9 1,0.0 c 3.0,-1.4 5.7,0.7 7.5,0.3 c 0.1,9.6 -6.4,8.6 -7.5,7.5 c -0.5,-0.5 -0.5,-0.5 -1,0.0 c -1.1,1.1 -7.6,2.1 -7.5,-7.5 z M 6.5,8.2 c 0.0,-2.6 -1.0,-2.1 -3.7,-2.1 c 0.5,2.5 1.3,2.1 3.7,2.1 z M 9.5,8.2 c 2.4,0.0 3.2,0.4 3.7,-2.1 c -2.7,0.0 -3.7,-0.5 -3.7,2.1 z"/></g></defs><g id="titlebar" class="t"><rect width="40" height="20" x="0" y="0" fill="#161616" stroke="none" stroke-width="0"/><use x="12" y="2" xlink:href="#Privacy-shape"/></g><g id="titlebar-XPVista7" class="t"><path fill="#000" fill-opacity=".813" stroke="#000" stroke-width="1" d="M 38.5,0 v 16 a 2.5,2.5 0 0,1 -2.5,2.5 h -32 a 2.5,2.5 0 0,1 -2.5,-2.5 v -16"/><use x="12" y="1" xlink:href="#Privacy-shape"/></g></svg>