<svg xmlns="http://www.w3.org/2000/svg" xmlns:xlink="http://www.w3.org/1999/xlink" width="16" height="16" viewBox="0 0 16 16"><defs><linearGradient id="i"><stop offset="0" stop-color="#262f3a"/><stop offset="1" stop-color="#5e6b7a"/></linearGradient><linearGradient id="b"><stop offset="0" stop-color="#464f5a"/><stop offset="1" stop-color="#7e8b9a"/></linearGradient><linearGradient id="a"><stop offset="0" stop-color="#8A97A6"/><stop offset="1" stop-color="#C7CFD9"/></linearGradient><linearGradient id="c" x1="13.108" x2="2.763" y1="13.135" y2="2.791" gradientUnits="userSpaceOnUse" xlink:href="#a"/><linearGradient id="d" x1="14.815" x2="4.34" y1="11.602" y2="1.127" gradientUnits="userSpaceOnUse" xlink:href="#b"/><linearGradient id="j" x1="14.815" x2="4.34" y1="11.602" y2="1.127" gradientUnits="userSpaceOnUse" xlink:href="#i"/></defs><path fill="url(#c)" stroke="url(#d)" stroke-linejoin="round" stroke-width=".6" d="M 4.1,14.8 c -.7,0 -.5,-.2 -1,-1 l -1.2,-9.1 l -.9,0 l 0,-.9 c 0,-1 .5,-1.5 1.5,-1.5 l 10,0 c 1,0 1.5,.5 1.5,1.5 l 0,.9 l -.9,0 l -11,0 l 11,0 l -1.2,9.1 c -.5,.8 -.3,1 -1,1 Z"/><path fill="none" stroke="url(#d)" stroke-width="1" d="M 5.5,2.5 v -.5 a 1.5,1.5 0 0,1 1.5,-1.5 h 1 a 1.5,1.5 0 0,1 1.5,1.5 v .5"/><path fill="url(#j)" stroke="none" stroke-width="0" d="M 4.25,6.1 a .5,.5 0 0,1 .995,-.1 l .72,6.2 a .5,.5 0 0,1 -.995,.1 l -.72,-6.2 z M 7,6 a .5,.5 0 0,1 1,0 l 0,6.2 a .5,.5 0 0,1 -1,0 l 0,-6.2 z M 9.75,6 a .5,.5 0 0,1 .995,.1 l -.72,6.2 a .5,.5 0 0,1 -.995,-.1 l .72,-6.2 z"/></svg>