<svg xmlns="http://www.w3.org/2000/svg" xmlns:xlink="http://www.w3.org/1999/xlink" width="16" height="16" viewBox="0 0 16 16"><defs><linearGradient id="d"><stop offset="0" stop-color="#323232"/><stop offset="1" stop-color="#646464"/></linearGradient><linearGradient id="c"><stop offset="0" stop-color="#b4b4b4"/><stop offset="1" stop-color="#dcdcdc"/></linearGradient><linearGradient id="b"><stop offset="0" stop-color="#3c3c3c"/><stop offset="1" stop-color="#646464"/></linearGradient><linearGradient id="a"><stop offset="0" stop-color="#505050"/><stop offset="1" stop-color="#8c8c8c"/></linearGradient><linearGradient id="e" x1="10.803" x2="4.726" y1="1047.39" y2="1041.559" gradientTransform="matrix(.97143 0 0 1.08571 .229 -1125.879)" gradientUnits="userSpaceOnUse" xlink:href="#a"/><linearGradient id="f" x1="12.563" x2="5.974" y1="1046.633" y2="1040.229" gradientTransform="matrix(.97143 0 0 1.08571 .229 -1125.879)" gradientUnits="userSpaceOnUse" xlink:href="#b"/><linearGradient id="g" x1="9.698" x2="5.893" y1="1046.429" y2="1042.623" gradientTransform="translate(-1.333 -1210.423) scale(1.16667)" gradientUnits="userSpaceOnUse" xlink:href="#c"/><linearGradient id="h" x1="9.023" x2="6.49" y1="1045.897" y2="1043.363" gradientTransform="translate(0 -1036.362)" gradientUnits="userSpaceOnUse" xlink:href="#d"/><linearGradient id="strokeBrightColors"><stop offset="0" stop-color="#fff"/><stop offset="1" stop-color="#efefef"/></linearGradient><linearGradient id="fillBrightColors"><stop offset="0" stop-color="#fff"/><stop offset="1" stop-color="#c8c8c8"/></linearGradient><linearGradient id="fillBrightGradient" x1="10.723" x2="4.82" y1="11.283" y2="4.952" gradientUnits="userSpaceOnUse" xlink:href="#fillBrightColors"/><linearGradient id="strokeBrightGradient" x1="12.563" x2="5.974" y1="10.461" y2="3.508" gradientUnits="userSpaceOnUse" xlink:href="#strokeBrightColors"/><linearGradient id="strokeActiveColors"><stop offset="0" stop-color="#2959b8"/><stop offset="1" stop-color="#83ace8"/></linearGradient><linearGradient id="fillActiveColors"><stop offset="0" stop-color="#5c87d0"/><stop offset="1" stop-color="#abc7ed"/></linearGradient><linearGradient id="fillActiveGradient" x1="10.723" x2="4.82" y1="11.283" y2="4.952" gradientUnits="userSpaceOnUse" xlink:href="#fillActiveColors"/><linearGradient id="strokeActiveGradient" x1="12.563" x2="5.974" y1="10.461" y2="3.508" gradientUnits="userSpaceOnUse" xlink:href="#strokeActiveColors"/></defs><style/><path id="fullShape" fill="url(#je)" stroke-linejoin="round" d="M14.8 8c0 1.085-3.044 3.8-6.8 3.8S1.2 9.085 1.2 8 4.244 4.2 8 4.2s6.8 2.715 6.8 3.8 M11.5 8 a 3.5,3.5 0 0 0 -7,0 a 3.5,3.5 0 0 0 7,0 M9.5 8 a 1.5,1.5 0 0 1 -3,0 a 1.5,1.5 0 0 1 3,0 M14.8 8 z" style="marker:none"/><path id="outerShape" fill="url(#e)" stroke="url(#f)" stroke-linejoin="round" stroke-width=".4" d="M14.8 8c0 1.085-3.044 3.8-6.8 3.8S1.2 9.085 1.2 8 4.244 4.2 8 4.2s6.8 2.715 6.8 3.8z" style="marker:none"/><g id="iris"><circle cx="8" cy="8" r="3.5" fill="url(#g)" style="marker:none"/><circle cx="8" cy="8" r="2" fill="url(#h)" style="marker:none"/></g></svg>