<svg xmlns="http://www.w3.org/2000/svg" xmlns:xlink="http://www.w3.org/1999/xlink" width="16" height="16"><style>.t:not(:target){display:none}</style><defs><linearGradient id="b"><stop offset="0" stop-color="#f2451d"/><stop offset=".101" stop-color="#f01428" stop-opacity=".8"/><stop offset=".897" stop-color="#de8493"/><stop offset="1" stop-color="#efc3cc"/></linearGradient><linearGradient id="a"><stop offset="0" stop-color="#520e0d"/><stop offset="1" stop-color="#c4181d"/></linearGradient><linearGradient id="d" x1="7.231" x2="7.231" y1="1051.323" y2="1037.401" gradientTransform="translate(0 -1036.362)" gradientUnits="userSpaceOnUse" xlink:href="#a"/><linearGradient id="c" x1="8.769" x2="8.769" y1="1049.931" y2="1038.668" gradientTransform="translate(0 -1036.362)" gradientUnits="userSpaceOnUse" xlink:href="#b"/><filter id="e" width="1.48" height="1.48" x="-.24" y="-.24" color-interpolation-filters="sRGB"><feGaussianBlur stdDeviation=".8"/></filter></defs><g id="minimize" class="t"><rect width="13" height="13" x="1.5" y="1.5" fill="url(#c)" stroke="url(#d)" stroke-linejoin="round" rx="2" ry="2"/><path style="marker:none" d="M4.25,4.75l4,4l4.5-4.5v2l-4.5,4.5l-4-4zm0,3.75l4,4l4.5-4.5v2l-4.5,4.5l-4-4z" color="#000" filter="url(#e)" opacity=".4" overflow="visible"/><path style="marker:none" fill="#fff" d="M4,3.75l4,4l4-4v1.75l-4,4l-4-4zm0,3.75l4,4l4-4v1.75l-4,4l-4-4z" color="#000" overflow="visible"/></g><g id="restore" class="t"><rect width="13" height="13" x="1.5" y="1.5" fill="url(#c)" stroke="url(#d)" stroke-linejoin="round" rx="2" ry="2"/><path style="marker:none" d="M4.25,7.75l4-4l4.5,4.5v2l-4.5-4.5l-4,4zm0,3.75l4-4l4.5,4.5v2l-4.5-4.5l-4,4z" color="#000" filter="url(#e)" opacity=".4" overflow="visible"/><path style="marker:none" fill="#fff" d="M4,6.75l4-4l4,4v1.75l-4-4l-4,4zm0,3.75l4-4l4,4v1.75l-4-4l-4,4z" color="#000" overflow="visible"/></g></svg>