<svg xmlns="http://www.w3.org/2000/svg" xmlns:xlink="http://www.w3.org/1999/xlink" width="16" height="16"><defs><linearGradient id="c"><stop offset="0" stop-color="#282828"/><stop offset="1" stop-color="#505050"/></linearGradient><linearGradient id="d"><stop offset="0"/><stop offset="1" stop-color="#3c3c3c"/></linearGradient><linearGradient id="g" x1="8.652" x2="8.652" y1="11.763" y2="5.317" gradientUnits="userSpaceOnUse" xlink:href="#c"/><linearGradient id="h" x1="9.168" x2="9.168" y1="12.3" y2="4.811" gradientUnits="userSpaceOnUse" xlink:href="#d"/></defs><style>g{marker:none color: #000;fill:url(#g);stroke:url(#h);stroke-width:.4;overflow:visible}g:not(:target){display:none}</style><g id="overview-markers"><rect width="4.6" height="2.1" x=".2" y="3.2" rx="1" ry="1"/><rect width="8.6" height="2.1" x="7.2" y="3.2" rx="1" ry="1"/><rect width="8.6" height="2.1" x=".2" y="7.2" rx="1" ry="1"/><rect width="5.6" height="2.1" x="10.2" y="7.2" rx="1" ry="1"/><rect width="4.6" height="2.1" x="4.2" y="11.2" rx="1" ry="1"/><rect width="3.6" height="2.1" x="12.2" y="11.2" rx="1" ry="1"/></g><g id="overview-frames"><rect width="1.6" height="11.6" x="1.2" y="4.2" rx="1" ry="1"/><rect width="1.6" height="3.6" x="5.2" y="12.2" rx="1" ry="1"/><rect width="1.6" height="6.6" x="9.2" y="9.2" rx="1" ry="1"/><rect width="1.6" height="8.6" x="13.2" y="7.2" rx="1" ry="1"/></g><g id="details-waterfall"><rect width="8.6" height="2.1" x=".2" y="3.2" rx="1" ry="1"/><rect width="7.6" height="2.1" x="5.2" y="7.2" rx="1" ry="1"/><rect width="8.6" height="2.1" x="7.2" y="11.2" rx="1" ry="1"/></g><g id="details-call-tree"><rect width="15.6" height="1.6" x=".2" y="3.2" rx="1" ry="1"/><rect width="7.6" height="1.6" x=".2" y="6.2" rx="1" ry="1"/><rect width="10.6" height="1.6" x=".2" y="9.2" rx="1" ry="1"/><rect width="5.6" height="1.6" x=".2" y="12.2" rx="1" ry="1"/></g><g id="details-flamegraph"><rect width="15.6" height="1.6" x=".2" y="3.2" rx="1" ry="1"/><rect width="7.6" height="1.6" x=".2" y="6.2" rx="1" ry="1"/><rect width="5.6" height="1.6" x="10.2" y="6.2" rx="1" ry="1"/><rect width="5.6" height="1.6" x="2.2" y="9.2" rx="1" ry="1"/><rect width="2.6" height="1.6" x="5.2" y="12.2" rx="1" ry="1"/></g></svg>