<svg xmlns="http://www.w3.org/2000/svg" xmlns:xlink="http://www.w3.org/1999/xlink" width="16" height="16" viewBox="0 0 16 16"><defs><linearGradient id="marksColors"><stop offset="0" stop-color="#dd8506"/><stop offset="1" stop-color="#f4a24b"/></linearGradient><linearGradient id="caseColors"><stop offset="0" stop-color="#f3a952"/><stop offset="1" stop-color="#fadbba"/></linearGradient><linearGradient id="caseGradient" x1="9.06" x2="9.06" y1="13.305" y2="1.704" gradientUnits="userSpaceOnUse" xlink:href="#caseColors"/><linearGradient id="marksGradient" x1="10.576" x2=".835" y1="11.641" y2="1.901" gradientUnits="userSpaceOnUse" xlink:href="#marksColors"/><linearGradient id="marksActiveColors"><stop offset="0" stop-color="#2959b8"/><stop offset="1" stop-color="#83ace8"/></linearGradient><linearGradient id="caseActiveColors"><stop offset="0" stop-color="#5c87d0"/><stop offset="1" stop-color="#abc7ed"/></linearGradient><linearGradient id="caseActiveGradient" x1="1.472" x2="1.472" y1="-4.098" y2="6.772" gradientTransform="matrix(.65609 0 0 -1.01925 4.494 9.401)" gradientUnits="userSpaceOnUse" xlink:href="#caseActiveColors"/><linearGradient id="marksActiveGradient" x1="10.18" x2="3.926" y1="8.767" y2="2.99" gradientUnits="userSpaceOnUse" xlink:href="#marksActiveColors"/></defs><style>path{stroke:url(#marksGradient)}g.marks path,path.foot{fill:url(#marksGradient);stroke:none}path,path.foot{fill:url(#caseGradient)}#active:target path,#active:target path.foot{fill:url(#caseActiveGradient);stroke:url(#marksActiveGradient)}#active:target path.foot{stroke:none}#active:target g.marks path{fill:url(#marksActiveGradient);stroke:none}</style><g id="active"><circle cx="8" cy="8" r="6" fill="#fff"/><path stroke-linejoin="round" stroke-width=".4" d="m8,.6a 7.4,7.4 0 0,0 -7.4,7.4a 7.4,7.4 0 0,0 7.4,7.4a 7.4,7.4 0 0,0 7.4,-7.4a 7.4,7.4 0 0,0 -7.4,-7.4 zm-0,12.7a5.4,5.4 0 0,1 -5.4-5.4 a5.4,5.4 0 0,1 5.4-5.4a5.4,5.4 0 0,1 5.4,5.4a5.4,5.4 0 0,1 -5.4,5.4z"/><g class="marks"><path d="m11.3,4.6l-3.9,2.5 1.5,1.4 2.4-3.9z"/><path d="m8,6.9a1.1,1.1 0 0,1 1.1,1.1 a1.1,1.1 0 0,1 -1.1,1.1a1.1,1.1 0 0,1 -1.1-1.1 a1.1,1.1 0 0,1 1.1-1.1z"/></g><path d="m4.6,10c.7,1.2 2,2 3.4,2 1.5,0 2.7-.8 3.4-2h-6.8z" class="foot" opacity=".5"/><g class="marks" opacity=".67"><path d="m7.1,5.1l-.6-1.3-.9,.4 .7,1.3c.2-.1 .5-.3 .8-.4z"/><path d="m9.8,5.6l.7-1.4-.9-.4-.7,1.3c.3,.2 .6,.3 .9,.5z"/><path d="m10.8,7c.1,.3 .2,.7 .2,1h1.5v-1h-1.7z"/><path d="m5.2,8c0-.3 .1-.7 .2-1h-1.7l-0,1h1.5z"/></g></g></svg>